<?xml version="1.0" encoding="utf-8"?>
<!-- Generator: Adobe Illustrator 22.1.0, SVG Export Plug-In . SVG Version: 6.00 Build 0)  -->
<svg version="1.1" xmlns="http://www.w3.org/2000/svg" xmlns:xlink="http://www.w3.org/1999/xlink" x="0px" y="0px"
	 viewBox="0 0 1102 551" style="enable-background:new 0 0 1102 551;" xml:space="preserve">
<style type="text/css">
	.st0{fill:#009245;}
	.st1{fill:#AB4882;}
	.st2{fill:#39B54A;}
	.st3{fill:#29ABE2;}
	.st4{fill:#F15A24;}
	.st5{fill:#FBB03B;}
	.st6{fill:#808080;}
	.st7{fill:none;stroke:#603813;stroke-width:10;stroke-linecap:square;stroke-miterlimit:10;}
	.st8{fill:#603813;stroke:#603813;stroke-width:10;stroke-linecap:square;stroke-miterlimit:10;}
	.st9{fill:#FCEE21;stroke:#603813;stroke-width:10;stroke-linecap:square;stroke-miterlimit:10;}
	.st10{fill:#333333;}
	.st11{fill:#F2F2F2;}
	.st12{fill:#CCCCCC;}
	.st13{fill:#DE4F4F;}
	.st14{fill:#A83B3B;}
	.st15{fill:#C48A2E;}
	.st16{fill:#00FFFF;}
	.st17{fill:#B3B3B3;}
	.st18{fill:#FFFFFF;}
	.st19{fill:none;stroke:#F2F2F2;stroke-width:2;stroke-miterlimit:10;}
	.st20{fill:#666666;}
	.st21{fill:#666666;stroke:#666666;stroke-width:2;stroke-miterlimit:10;}
	.st22{fill:none;stroke:#000000;stroke-width:0.25;stroke-miterlimit:10;}
	.st23{fill:#A37A36;}
	.st24{fill:#FFD794;}
	.st25{fill:#1A1A1A;}
	.st26{fill:#4D4D4D;}
	.st27{fill:none;stroke:#000000;stroke-width:0.5;stroke-miterlimit:10;}
	.st28{fill:#A33D18;}
	.st29{fill:none;stroke:#1A1A1A;stroke-width:2;stroke-miterlimit:10;}
	.st30{fill:#277D33;}
	.st31{fill:#999999;}
	.st32{fill:none;stroke:#F2F2F2;stroke-width:4;stroke-miterlimit:10;}
	.st33{fill:none;stroke:#F2F2F2;stroke-miterlimit:10;}
	.st34{fill:none;stroke:#F2F2F2;stroke-width:0.5;stroke-miterlimit:10;}
	.st35{fill:#FBF1B7;}
	.st36{fill:#F4C55D;}
	.st37{fill:#BF9440;}
	.st38{fill:#006837;}
	.st39{fill:#ED1C24;}
	.st40{fill:#C1272D;}
	.st41{fill:#D9E021;}
	.st42{fill:#93278F;}
	.st43{fill:#00FF00;}
	.st44{fill:none;stroke:#F2F2F2;stroke-width:0.25;stroke-miterlimit:10;}
	.st45{fill:#F7931E;}
	.st46{fill:none;stroke:#000000;stroke-miterlimit:10;}
	.st47{fill:#ADA67E;}
	.st48{fill:#0071BC;}
	.st49{fill:none;stroke:#0071BC;stroke-miterlimit:10;}
	.st50{fill:none;stroke:#0071BC;stroke-linecap:round;stroke-linejoin:round;stroke-miterlimit:10;}
	.st51{display:none;fill:#B3B3B3;}
	.st52{fill:#E6E6E6;}
	.st53{fill:#754C24;}
	.st54{fill:#A67C52;}
	.st55{fill:#C69C6D;}
	.st56{fill:none;stroke:#ED1C24;stroke-width:0.5;stroke-miterlimit:10;}
	.st57{fill:none;stroke:#000000;stroke-width:0.75;stroke-miterlimit:10;}
	.st58{fill:none;}
	.st59{fill:#603813;}
	.st60{fill:#F2F2F2;stroke:#F2F2F2;stroke-width:0.5;stroke-miterlimit:10;}
	.st61{fill:#78335B;}
	.st62{fill:none;stroke:#808080;stroke-miterlimit:10;}
	.st63{fill:#FCEE21;}
	.st64{fill:none;stroke:#4D4D4D;stroke-width:0.5;stroke-miterlimit:10;}
	.st65{fill:none;stroke:#1A1A1A;stroke-width:3;stroke-miterlimit:10;}
</style>
<g id="House" >
	<path id="Tree2" class="st0" d="M121,521c-12.6-10.3-20.6-28.8-16-34c3.8-4.3,15.2,2.2,18-2c2.6-3.9-6.7-10.7-12-28
		c-3.6-12-2.1-18.1-1-21c0.7-1.9,2.4-6.7,7-10c6.1-4.5,10-0.9,16-5c4.7-3.3,3.2-6.1,10-13c4.7-4.7,5.5-3.6,8-7
		c4.7-6.6,4.2-14.8,4-18c-0.3-5.2-1.4-4.5-2-10c-0.4-4.3-1.5-14.2,4-21c1.7-2.1,2.6-2.1,7-7c2.2-2.4,3.5-3.9,5-6
		c2.6-3.7,3.9-6.9,6-12c1.2-3,2-5.2,3-8c2.5-7,3-9.4,5-14c1.7-3.8,1.8-4.9,3-6c0,0,3.2-2.8,9-2c14,1.9,64.7,188.9-2,228
		C172.7,536.9,139.6,536.2,121,521z"/>
	<path id="Tree1" class="st0" d="M971.3,522c12.6-10.3,20.6-28.8,16-34c-3.8-4.3-15.2,2.2-18-2c-2.6-3.9,6.7-10.7,12-28
		c3.6-12,2.1-18.1,1-21c-0.7-1.9-2.4-6.7-7-10c-6.1-4.5-10-0.9-16-5c-4.7-3.3-3.2-6.1-10-13c-4.7-4.7-5.5-3.6-8-7
		c-4.7-6.6-4.2-14.8-4-18c0.3-5.2,1.4-4.5,2-10c0.4-4.3,1.5-14.2-4-21c-1.7-2.1-2.6-2.1-7-7c-2.2-2.4-3.5-3.9-5-6
		c-2.6-3.7-3.9-6.9-6-12c-1.2-3-2-5.2-3-8c-2.5-7-3-9.4-5-14c-1.7-3.8-1.8-4.9-3-6c0,0-3.2-2.8-9-2c-14,1.9-64.7,188.9,2,228
		C919.6,537.9,952.7,537.2,971.3,522z"/>
	<polygon id="Bedroom_x5F_bg" class="st1" points="198,166 548,16 913,176 913,216 183,216 	"/>
	<rect id="Livingroom_x5F_bg" x="403" y="216" class="st2" width="495" height="150"/>
	<rect id="Garage_x5F_bg" x="573" y="366" class="st3" width="325" height="145"/>
	<rect id="Kitchen_x5F_bg" x="198" y="369" class="st4" width="300" height="150"/>
	<rect id="Bathroom_x5F_bg" x="198" y="216" class="st5" width="200" height="150"/>
	<rect id="Hall_x5F_bg" x="498" y="366" class="st6" width="75" height="150"/>
	<polygon id="House_1_" class="st7" points="198,516 898,516 898,166 548,16 198,166 	"/>
	<polygon id="Roof2" class="st8" points="198,166 148,186 148,201 163,201 163,221 198,221 	"/>
	<polygon id="Roof1" class="st8" points="898,166 948,186 948,201 933,201 933,221 898,221 	"/>
	<line id="Floor2" class="st9" x1="198" y1="216" x2="903" y2="216"/>
	<line id="Floor1" class="st8" x1="198" y1="366" x2="898" y2="366"/>
	<line id="Wall3" class="st8" x1="398" y1="216" x2="398" y2="366"/>
	<line id="Wall2" class="st8" x1="498" y1="366" x2="498" y2="516"/>
	<line id="Wall1" class="st8" x1="573" y1="366" x2="573" y2="516"/>
	<rect id="Ground2" y="521" class="st2" width="1102" height="15"/>
	<rect id="Ground1" y="536" class="st0" width="1102" height="15"/>
	<path id="Herb" class="st2" d="M1059,533l-60-4.9L989,505c0,0,6-11.9,5-13.3s16,33.6,16,32.9c0-0.7-10-37.8-13-40.6
		c-3-2.8,20,42,20,42s-4-34.3-6-37.8s13,37.1,13,37.1l-12-44.1c0,0,19,42,20,40.6s2-35.7,1-38.5c-1-2.8,6,38.5,4,36.4
		c-2-2.1-2-28-3-29.4s21,33.6,21,32.2s-3-30.1-4-31.5s13,35,13,34.3c0-0.7-7-31.5-7-31.5s12,30.8,12,30.1c0-0.7-1-23.8-1-23.8
		s4,29.4,4,32.2c0,2.8,0-7-1-8.4s12-13.3,12-18.2c0-4.9-6,26.6-7,25.9c-1-0.7,1-29.4,0-32.9s0,27.3,0,27.3l-7.7-21l-1.3-3.5l-7,25.2
		l-8-25.9v25.9l-6-29.4l-1.5,30.1l-5.5-25.2c0,0,2,25.2,0.5,25.2s-2.5-26.6-2.5-26.6l-2,18.9c0,0-4-48.3-5-49.7s2,48.3,2,48.3
		s-9-42.7-9-43.4s2,47.6,2,47.6l-6-31.5c0,0-2,34.3-3,33.6c-1-0.7-7-24.5-7-24.5v21.7l-4-28v21.7l-5-25.9l5,36.4l-0.4-1.4L997,498
		l1,25.9l-7-30.8l-2,31.5L77,533l-60-4.9L7,505c0,0,6-11.9,5-13.3s16,33.6,16,32.9c0-0.7-10-37.8-13-40.6c-3-2.8,20,42,20,42
		s-4-34.3-6-37.8s13,37.1,13,37.1l-12-44.1c0,0,19,42,20,40.6s2-35.7,1-38.5c-1-2.8,6,38.5,4,36.4c-2-2.1-2-28-3-29.4
		s21,33.6,21,32.2s-3-30.1-4-31.5s13,35,13,34.3c0-0.7-7-31.5-7-31.5s12,30.8,12,30.1c0-0.7-1-23.8-1-23.8s4,29.4,4,32.2
		c0,2.8,0-7-1-8.4s12-13.3,12-18.2c0-4.9-6,26.6-7,25.9c-1-0.7,1-29.4,0-32.9s0,27.3,0,27.3l-7.7-21l-1.3-3.5l-7,25.2l-8-25.9v25.9
		l-6-29.4l-1.5,30.1L57,502.2c0,0,2,25.2,0.5,25.2S55,500.8,55,500.8l-2,18.9c0,0-4-48.3-5-49.7s2,48.3,2,48.3s-9-42.7-9-43.4
		s2,47.6,2,47.6L37,491c0,0-2,34.3-3,33.6c-1-0.7-7-24.5-7-24.5v21.7l-4-28v21.7l-5-25.9l5,36.4l-0.4-1.4L15,498l1,25.9l-7-30.8
		l-2,31.5"/>
</g>
<g id="BathRoom" style="pointer-events: stroke;">
	<g id="Lamp" class="clickable">
		<rect id="Cable_1_" x="328" y="221" class="st10" width="5" height="20"/>
		<path id="Bracket" class="st11" d="M318,251v-15c0,0,0-5,8.3-5c8.3,0,8.3,0,8.3,0s8.3,0,8.3,5s0,15,0,15H318z"/>
	</g>
	<g id="Bathtub">
		<rect id="Bathtub_x5F_top" x="203" y="326" class="st11" width="80" height="5"/>
		<rect id="Bathtub_x5F_middle" x="203" y="331" class="st12" width="75" height="5"/>
		<rect id="Bar_x5F_top" x="203" y="241" class="st11" width="80" height="5"/>
		<path id="Bathtub_x5F_bottom" class="st11" d="M278,336v11.1c0,0,0,13.9-25,13.9s-50,0-50,0v-25H278"/>
		<rect id="Curtain4" x="263" y="251" class="st13" width="10" height="75"/>
		<rect id="Curtain3" x="258" y="251" class="st14" width="6" height="75"/>
		<rect id="Curtain2" x="248" y="251" class="st13" width="10" height="75"/>
		<rect id="Curtain1" x="243" y="251" class="st14" width="5" height="75"/>
		<rect id="Shadow2" x="203" y="246" class="st15" width="40" height="5"/>
		<rect id="Shadow1" x="273" y="246" class="st15" width="10" height="5"/>
		<rect id="Curtain_x5F_shadow" x="243" y="246" class="st14" width="30" height="5"/>
	</g>
	<g id="Sink_x2B_Mirror">
		<path id="Mirror" class="st16" d="M313,311h35v-40c0,0-15-25-35,0C313,296.4,313,311,313,311z"/>
		<rect id="tap" x="328" y="306" class="st17" width="5" height="10"/>
		<rect id="Sink_x5F_top" x="308" y="316" class="st11" width="45" height="5"/>
		<rect id="Sink_x5F_middle" x="313" y="321" class="st12" width="35" height="5"/>
		<rect id="Sink_x5F_bottom" x="313" y="326" class="st18" width="35" height="5"/>
		<polygon id="Reflect2" class="st18" points="313,286 313,281 338.5,261.9 342,264 		"/>
		<polygon id="Reflect1" class="st18" points="348,271 348,278 331,290 331,284 		"/>
		<path id="Carpet" class="st13" d="M349.8,356h-38.2c-2,0-3.6,1.6-3.6,3.6v1.4c0,0,0,0,0,0h45c0,0,0,0,0,0v-1.8
			C353,357.5,351.5,356,349.8,356z"/>
	</g>
	<g id="Towerheater">
		<path id="Bloc5" class="st11" d="M391.8,266h-4.7c-2.3,0-4.1-1.8-4.1-4.1v-4.7c0-0.7,0.5-1.2,1.2-1.2h7.6c0.7,0,1.2,0.5,1.2,1.2
			v7.6C393,265.5,392.5,266,391.8,266z"/>
		<path id="Bloc4" class="st11" d="M391.8,286h-4.7c-2.3,0-4.1-1.8-4.1-4.1v-4.7c0-0.7,0.5-1.2,1.2-1.2h7.6c0.7,0,1.2,0.5,1.2,1.2
			v7.6C393,285.5,392.5,286,391.8,286z"/>
		<path id="Bloc3" class="st11" d="M391.8,306h-4.7c-2.3,0-4.1-1.8-4.1-4.1v-4.7c0-0.7,0.5-1.2,1.2-1.2h7.6c0.7,0,1.2,0.5,1.2,1.2
			v7.6C393,305.5,392.5,306,391.8,306z"/>
		<path id="Bloc2" class="st11" d="M391.8,326h-4.7c-2.3,0-4.1-1.8-4.1-4.1v-4.7c0-0.7,0.5-1.2,1.2-1.2h7.6c0.7,0,1.2,0.5,1.2,1.2
			v7.6C393,325.5,392.5,326,391.8,326z"/>
		<path id="Bloc1" class="st11" d="M391.8,346h-4.7c-2.3,0-4.1-1.8-4.1-4.1v-4.7c0-0.7,0.5-1.2,1.2-1.2h7.6c0.7,0,1.2,0.5,1.2,1.2
			v7.6C393,345.5,392.5,346,391.8,346z"/>
		<path id="Towel" class="st14" d="M393,256h-10v50c0,0-5,0-5-10s0-45,0-45h15V256"/>
		<line id="Middlebar" class="st19" x1="388" y1="336" x2="388" y2="256"/>
	</g>
	<g id="Hairdryer" class="clickable">
		<polygon id="Bottom" class="st20" points="300.5,291 293,291 293,296 294.3,296 300.5,296 		"/>
		<rect id="Middle" x="300.5" y="291" class="st10" width="3.8" height="5"/>
		<path id="Top" class="st20" d="M304.9,291h-0.3c-0.1,0-0.3,0.1-0.3,0.3v4.5c0,0.1,0.1,0.3,0.3,0.3h0.1c1.3,0,2.4-1.1,2.4-2.4v-0.5
			C307,292,306,291,304.9,291z"/>
		<path id="Handle" class="st21" d="M297,304c0,0-3-3-3-8"/>
		<rect id="Blower" x="292.5" y="291" class="st10" width="1.5" height="5"/>
		<path id="Cable" class="st22" d="M297,304c0,1,0.1,2.9,1,5c0.9,1.9,2,2,3,4c0.5,0.9,1.5,2.9,1,5c-0.5,2.5-2.6,2.6-3,5
			c-0.3,1.6,0.1,4,2,5c1.8,0.9,4.3,0.3,5-1c0.8-1.4-1-2.9-1-6c0-1.7,2.6-1.1,3-2"/>
	</g>
</g>
<g id="Hall">
	<g id="Stair">
		<rect id="Stair10" x="503" y="501" class="st23" width="65" height="10"/>
		<rect id="Stair9" x="503" y="471" class="st23" width="65" height="10"/>
		<rect id="Stair8" x="503" y="486" class="st23" width="65" height="10"/>
		<rect id="Stair7" x="503" y="456" class="st23" width="65" height="10"/>
		<rect id="Stair6" x="503" y="441" class="st23" width="65" height="10"/>
		<rect id="Stair5" x="503" y="436" class="st24" width="65" height="5"/>
		<rect id="Stair4" x="503" y="451" class="st24" width="65" height="5"/>
		<rect id="Stair3" x="503" y="466" class="st24" width="65" height="5"/>
		<rect id="Stair2" x="503" y="481" class="st24" width="65" height="5"/>
		<rect id="Stair1" x="503" y="496" class="st24" width="65" height="5"/>
	</g>
	<g id="Picture">
		<rect id="Frame" x="523" y="376" class="st11" width="30" height="40"/>
		<rect id="Pic" x="526.8" y="381" class="st2" width="22.5" height="30"/>
		<rect id="Shadow" x="523" y="416" class="st20" width="30" height="5"/>
	</g>
</g>
<g id="Kitchen">
	<g id="Dishwasher" class="clickable">
		<rect id="Bottom_6_" x="203" y="461" class="st12" width="50" height="50"/>
		<rect id="Frame_4_" x="208" y="466" class="st11" width="40" height="45"/>
		<path id="Top_3_" class="st11" d="M233,466h-10v-3.7c0-0.7,0.6-1.3,1.3-1.3h7.5c0.6,0,1.1,0.5,1.1,1.1V466z"/>
		<rect id="Handle_1_" x="213" y="471" class="st20" width="30" height="5"/>
	</g>
	<g id="Cupboard">
		<rect id="Bottom_5_" x="253" y="461" class="st12" width="50" height="50"/>
		<rect id="Frame_3_" x="258" y="466" class="st11" width="40" height="45"/>
		<rect id="Middle_2_" x="258" y="486" class="st12" width="40" height="5"/>
		<rect id="Handle2_1_" x="273" y="466" class="st20" width="10" height="5"/>
		<rect id="Handle1_1_" x="273" y="491" class="st20" width="10" height="5"/>
	</g>
	<g id="Oven">
		<rect id="Bottom_4_" x="303" y="461" class="st12" width="50" height="50"/>
		<rect id="Frame_2_" x="308" y="466" class="st11" width="40" height="45"/>
		<rect id="Window_1_" x="313" y="481" class="st20" width="30" height="24"/>
		<rect id="Button1_1_" x="313" y="471" class="st20" width="5" height="5"/>
		<rect id="Button3" x="338" y="471" class="st20" width="5" height="5"/>
		<rect id="Button2_1_" x="323" y="471" class="st20" width="10" height="5"/>
	</g>
	<g id="Microwave" class="clickable">
		<rect id="Bottom_3_" x="203" y="441" class="st12" width="40" height="5"/>
		<rect id="Frame_1_" x="203" y="416" class="st11" width="40" height="25"/>
		<rect id="Window" x="208" y="421" class="st20" width="25" height="15"/>
	</g>
	<g id="Worktop">
		<rect id="Top_1_" x="203" y="446" class="st11" width="150" height="10"/>
		<rect id="Bottom_2_" x="203" y="456" class="st12" width="150" height="5"/>
	</g>
	<g id="Hotplate" class="clickable">
		<path id="Subplate2" class="st25" d="M324.8,445h-3.6c-1.8,0-3.2,1.4-3.2,3.2v3.6c0,1.8,1.4,3.2,3.2,3.2h3.6
			c1.8,0,3.2-1.4,3.2-3.2v-3.6C328,446.4,326.6,445,324.8,445z"/>
		<path id="Subplate1" class="st25" d="M344.8,445h-3.6c-1.8,0-3.2,1.4-3.2,3.2v3.6c0,1.8,1.4,3.2,3.2,3.2h3.6
			c1.8,0,3.2-1.4,3.2-3.2v-3.6C348,446.4,346.6,445,344.8,445z"/>
		<path id="Plate2" class="st26" d="M325.8,444h-3.6c-1.8,0-3.2,1.4-3.2,3.2v3.6c0,1.8,1.4,3.2,3.2,3.2h3.6c1.8,0,3.2-1.4,3.2-3.2
			v-3.6C329,445.4,327.6,444,325.8,444z"/>
		<path id="Plate1" class="st26" d="M345.8,444h-3.6c-1.8,0-3.2,1.4-3.2,3.2v3.6c0,1.8,1.4,3.2,3.2,3.2h3.6c1.8,0,3.2-1.4,3.2-3.2
			v-3.6C349,445.4,347.6,444,345.8,444z"/>
		<circle id="Button2" class="st26" cx="323" cy="460" r="3"/>
		<circle id="Button1" class="st26" cx="343" cy="460" r="3"/>
		<line id="Buttonbar2" class="st27" x1="323" y1="460" x2="323" y2="457"/>
		<line id="Buttonbar1" class="st27" x1="343" y1="460" x2="343" y2="457"/>
	</g>
	<g id="Fridge" class="clickable">
		<rect id="Bottom_1_" x="438" y="436" class="st11" width="55" height="75"/>
		<rect id="Top_2_" x="438" y="401" class="st11" width="55" height="30"/>
		<rect id="Middle_1_" x="438" y="431" class="st12" width="55" height="5"/>
		
			<rect id="Handle2" x="436" y="449" transform="matrix(-1.836970e-16 1 -1 -1.836970e-16 897 6)" class="st20" width="19" height="5"/>
		
			<rect id="Handle1" x="439" y="412" transform="matrix(-1.836970e-16 1 -1 -1.836970e-16 860 -31)" class="st20" width="13" height="5"/>
	</g>
	<g id="Hood" class="clickable">
		<rect id="Hood_x5F_top" x="298" y="371" class="st6" width="25" height="30"/>
		<polygon id="Hood_x5F_middle" class="st17" points="298,401 323,401 333,406 288,406 		"/>
		<rect id="Hood_x5F_bottom" x="288" y="406" class="st6" width="45" height="5"/>
		<rect id="Shadow_1_" x="288" y="411" class="st28" width="45" height="10"/>
	</g>
	<g id="Lamps" class="clickable">
		<circle id="Light2" class="st11" cx="238" cy="391" r="5"/>
		<path id="Bracket2" class="st25" d="M223,391h15h15C253,391,238,376,223,391z"/>
		<line id="Cable2" class="st29" x1="237" y1="386" x2="237" y2="371"/>
		<circle id="Light1" class="st11" cx="403" cy="391" r="5"/>
		<path id="Bracket1" class="st25" d="M388,391h15h15C418,391,403,376,388,391z"/>
		<line id="Cable1" class="st29" x1="402" y1="386" x2="402" y2="371"/>
	</g>
	<g id="Coffee" class="clickable">
		<path id="Bottom_15_" class="st10" d="M267,450h-20v3.1c0,0.5,0.4,0.9,0.9,0.9h18c0.6,0,1.1-0.5,1.1-1.1V450z"/>
		<path id="Middle_8_" class="st10" d="M247,450h5v-12h-2.6c-1.3,0-2.4,1.1-2.4,2.4V450z"/>
		<rect id="Top_12_" x="252" y="438" class="st10" width="15" height="2"/>
		<path id="Cup" class="st6" d="M261,445v1.3c0,0,0,1.3,1.2,3.8c2.4,0,3.6,0,3.6,0s1.2-2.5,1.2-3.8s0-1.3,0-1.3H261z"/>
		<circle id="Button2_2_" class="st11" cx="262.5" cy="451.5" r="0.5"/>
		<circle id="Button1_2_" class="st11" cx="264.5" cy="451.5" r="0.5"/>
	</g>
	<g id="Toaster" class="clickable">
		<path class="st20" d="M296,441h-13c-1.1,0-2,0.9-2,2v10h17v-10C298,441.9,297.1,441,296,441z"/>
		<rect x="281" y="452" class="st10" width="17" height="1"/>
		<line class="st22" x1="283" y1="442" x2="296" y2="442"/>
		<line class="st22" x1="283" y1="443" x2="296" y2="443"/>
	</g>
</g>
<g id="Desk">
	<g id="Desktop">
		<rect id="Shadow_3_" x="438" y="316" class="st30" width="167" height="30"/>
		<rect id="Leg2_5_" x="448" y="316" class="st11" width="5" height="45"/>
		<rect id="Leg1_3_" x="590" y="316" class="st11" width="5" height="45"/>
		<rect id="Table_1_" x="443" y="311" class="st11" width="156" height="5"/>
	</g>
	<g id="PC" class="clickable">
		<path id="Tower" class="st6" d="M470.8,326h-15.5c-1.2,0-2.2,1-2.2,2.2v30.5c0,1.2,1,2.2,2.2,2.2h15.5c1.2,0,2.2-1,2.2-2.2v-30.5
			C473,327,472,326,470.8,326z"/>
		<path id="Bottom_8_" class="st31" d="M518,296h-60v3c0,1.1,0.9,2,2,2h55.8c1.2,0,2.2-1,2.2-2.2V296z"/>
		<path id="Screen_1_" class="st10" d="M518,296h-60v-25.9c0-2.3,1.8-4.1,4.1-4.1h51.5c2.4,0,4.4,2,4.4,4.4V296z"/>
		<path id="Leg2_4_" class="st31" d="M505.7,306h-35.5c-1.2,0-2.2,1-2.2,2.2v2.8h40v-2.7C508,307,507,306,505.7,306z"/>
		<rect id="Leg2_3_" x="478" y="301" class="st12" width="20" height="5"/>
		<line id="Power" class="st32" x1="458" y1="331" x2="468" y2="331"/>
		<line id="Line_2_" class="st33" x1="463" y1="271" x2="468" y2="271"/>
	</g>
	<g id="Printer" class="clickable">
		<rect id="Body_2_" x="553" y="296" class="st6" width="35" height="15"/>
		<rect id="Input" x="558" y="286" class="st20" width="25" height="10"/>
		<rect id="Output" x="563" y="306" class="st17" width="15" height="5"/>
	</g>
	<g id="Internet_x5F_box" class="clickable">
		<path id="Body_1_" class="st25" d="M423,301h-2.3c-1.1,1.1-1.7,1.7-2.7,2.7V321h5V301z"/>
		<line id="Line_1_" class="st34" x1="419" y1="305" x2="419" y2="320"/>
	</g>
	<g id="Shelf">
		<rect id="Frame_8_" x="723" y="231" class="st35" width="80" height="130"/>
		<rect id="Bottom5" x="728" y="236" class="st36" width="70" height="20"/>
		<rect id="Bottom4" x="728" y="261" class="st36" width="70" height="20"/>
		<rect id="Bottom3" x="728" y="286" class="st36" width="70" height="20"/>
		<rect id="Bottom2_1_" x="728" y="311" class="st36" width="70" height="20"/>
		<rect id="Bottom1_1_" x="728" y="336" class="st36" width="70" height="20"/>
		<rect id="Shadow4_1_" x="728" y="236" class="st37" width="70" height="5"/>
		<rect id="Shadow4" x="728" y="261" class="st37" width="70" height="5"/>
		<rect id="Shadow3" x="728" y="286" class="st37" width="70" height="5"/>
		<rect id="Shadow2_1_" x="728" y="311" class="st37" width="70" height="5"/>
		<rect id="Shadow1_1_" x="728" y="336" class="st37" width="70" height="5"/>
		
			<rect id="Book17" x="729" y="241" transform="matrix(0.9909 0.1347 -0.1347 0.9909 40.1339 -96.2571)" class="st2" width="5" height="15"/>
		<rect id="Book16" x="734" y="246" class="st38" width="5" height="10"/>
		<rect id="Book15" x="739" y="241" class="st4" width="5" height="15"/>
		
			<rect id="Book14" x="747" y="241" transform="matrix(0.8982 -0.4397 0.4397 0.8982 -32.9271 354.8504)" class="st39" width="5" height="15"/>
		<rect id="Book13" x="758" y="246" class="st11" width="10" height="10"/>
		<rect id="Book12" x="778" y="251" class="st2" width="15" height="5"/>
		<rect id="Book11" x="728" y="271" class="st40" width="5" height="10"/>
		
			<rect id="Book10" x="734" y="266" transform="matrix(0.9502 -0.3117 0.3117 0.9502 -48.5568 243.1622)" class="st41" width="5" height="15"/>
		
			<rect id="Book9" x="740" y="271" transform="matrix(0.9378 -0.3471 0.3471 0.9378 -49.637 274.8947)" class="st3" width="5" height="10"/>
		
			<rect id="Book8" x="745" y="271" transform="matrix(0.9502 -0.3117 0.3117 0.9502 -48.788 246.7151)" class="st38" width="5" height="10"/>
		<rect id="Book7" x="751" y="266" class="st42" width="5" height="15"/>
		<rect id="Book6" x="762" y="266" class="st39" width="5" height="15"/>
		<rect id="Book5" x="767" y="266" class="st4" width="5" height="15"/>
		<rect id="Book4" x="772" y="271" class="st2" width="5" height="10"/>
		
			<rect id="Book3" x="789" y="266" transform="matrix(0.8191 0.5737 -0.5737 0.8191 300.0784 -404.5703)" class="st2" width="5" height="15"/>
		<rect id="Book2" x="783" y="246" class="st3" width="15" height="5"/>
		<rect id="Book1" x="778" y="241" class="st43" width="15" height="5"/>
		<line id="Bookline16" class="st44" x1="730.9" y1="242.3" x2="734.1" y2="242.7"/>
		<line id="Bookline15" class="st44" x1="735" y1="247" x2="738" y2="247"/>
		<line id="Bookline14" class="st44" x1="740" y1="242" x2="743" y2="242"/>
		<line id="Bookline13" class="st44" x1="751" y1="255" x2="753" y2="254"/>
		<line id="Bookline12" class="st44" x1="784" y1="247" x2="784" y2="250"/>
		<line id="Bookline11" class="st44" x1="779" y1="252" x2="779" y2="255"/>
		<line id="Bookline10" class="st44" x1="792" y1="242" x2="792" y2="245"/>
		<line id="Bookline9" class="st44" x1="729" y1="272" x2="732" y2="272"/>
		<line id="Bookline8" class="st44" x1="733" y1="268" x2="736" y2="267"/>
		<line id="Bookline7" class="st44" x1="742" y1="280" x2="745" y2="279"/>
		<line id="Bookline6" class="st44" x1="745" y1="273" x2="748" y2="272"/>
		<line id="Bookline5" class="st44" x1="752" y1="267" x2="755" y2="267"/>
		<line id="Bookline4" class="st44" x1="763" y1="267" x2="766" y2="267"/>
		<line id="Bookline3" class="st44" x1="768" y1="267" x2="771" y2="267"/>
		<line id="Bookline2" class="st44" x1="773" y1="272" x2="776" y2="272"/>
		<line id="Bookline1" class="st44" x1="794" y1="267" x2="797" y2="269"/>
	</g>
	<g id="Couch">
		<path id="Front2" class="st5" d="M828,336H698v4.6c0,3,2.4,5.4,5.4,5.4h118.2c3.5,0,6.4-2.9,6.4-6.4V336z"/>
		<rect id="Front1" x="698" y="326" class="st4" width="130" height="10"/>
		<path id="Armrest2" class="st4" d="M713,291h-11.3c-2,0-3.7,1.7-3.7,3.7V326h15V291z"/>
		<path id="Armrest1" class="st4" d="M823.6,291H813v35h15v-30.6C828,293,826,291,823.6,291z"/>
		<rect id="Base" x="713" y="321" class="st5" width="100" height="5"/>
		<path id="Back" class="st45" d="M806.6,281h-86.8c-3.8,0-6.8,3.1-6.8,6.8V321h100v-33.6C813,283.9,810.1,281,806.6,281z"/>
		<path id="Pillow" class="st11" d="M755.5,306h-30c-4.1,0-7.5,3.4-7.5,7.5l0,0c0,4.1,3.4,7.5,7.5,7.5h30c4.1,0,7.5-3.4,7.5-7.5l0,0
			C763,309.4,759.6,306,755.5,306z"/>
		<polygon id="Leg2_2_" class="st10" points="723,361 713,361 713,346 733,346 		"/>
		<polygon id="Leg1_2_" class="st10" points="803,361 813,361 813,346 793,346 		"/>
	</g>
	<g id="Sound_x5F_system" class="clickable">
		<rect id="Leg2_1_" x="668" y="356" class="st17" width="20" height="5"/>
		<rect id="Frame2" x="668" y="266" class="st10" width="20" height="90"/>
		<rect id="Leg1_1_" x="838" y="356" class="st17" width="20" height="5"/>
		<rect id="Frame1" x="838" y="266" class="st10" width="20" height="90"/>
		<circle id="Top2" class="st11" cx="677.5" cy="277.5" r="7.5"/>
		<circle id="Middle2" class="st11" cx="677.5" cy="300.5" r="7.5"/>
		<circle id="Bottom2" class="st11" cx="677.5" cy="324.5" r="7.5"/>
		<circle id="Top1" class="st11" cx="848.5" cy="277.5" r="7.5"/>
		<circle id="Middle1" class="st11" cx="848.5" cy="300.5" r="7.5"/>
		<circle id="Bottom1" class="st11" cx="848.5" cy="324.5" r="7.5"/>
	</g>
	<g id="Coffee_x5F_table">
		<rect id="Shadow_2_" x="608" y="341" class="st30" width="55" height="10"/>
		<rect id="Leg2" x="612" y="341" class="st11" width="5" height="20"/>
		<rect id="Leg1" x="654" y="341" class="st11" width="5" height="20"/>
		<rect id="Table" x="608" y="336" class="st11" width="55" height="5"/>
	</g>
	<g id="Clock">
		<circle id="Frame_6_" class="st26" cx="601" cy="250" r="18"/>
		<circle id="Glass_1_" class="st12" cx="601" cy="250" r="14"/>
		<line id="Hand2" class="st46" x1="601" y1="249" x2="601" y2="236"/>
		<line id="Hand1" class="st46" x1="601.1" y1="248.7" x2="607.5" y2="243.5"/>
	</g>
	<g id="Lamps_1_" class="clickable">
		<circle id="Light2_1_" class="st11" cx="489" cy="241" r="5"/>
		<path id="Bracket2_1_" class="st25" d="M474,241h15h15C504,241,489,226,474,241z"/>
		<line id="Cable2_1_" class="st29" x1="488" y1="236" x2="488" y2="221"/>
		<circle id="Light1_1_" class="st11" cx="654" cy="241" r="5"/>
		<path id="Bracket1_1_" class="st25" d="M639,241h15h15C669,241,654,226,639,241z"/>
		<line id="Cable1_1_" class="st29" x1="653" y1="236" x2="653" y2="221"/>
	</g>
	<g id="Heater" class="clickable">
		<path id="Body" class="st11" d="M883,311h10v50h-4c-3.3,0-6-2.7-6-6V311z"/>
		<path id="Top_4_" class="st31" d="M893,311h-10v-4.2c0-3.2,2.6-5.8,5.8-5.8h4.2V311z"/>
		<rect id="Line" x="891" y="311" class="st26" width="2" height="50"/>
	</g>
	<g id="Window_2_">
		<rect id="Frame_5_" x="413" y="231" class="st11" width="35" height="45"/>
		<rect id="Glass" x="418" y="236" class="st3" width="25" height="35"/>
	</g>
	<g id="Laptop" class="clickable">
		<path id="Cable_2_" class="st27" d="M651.5,336.5c0.3-0.5,1.5-1.8,2.5-2.5c0.5-0.3,1.6-1,3-1c1.4,0,2.5,0.7,3,1
			c1.1,0.7,1.7,1.5,2,2c0.3,0.5,0.8,1.2,1,2c0.4,1.6-0.8,2.2-1,4c-0.3,2.4,1.5,2.9,2,7c0.1,0.9,0.2,1.8,0,3c-0.4,2.1-1.6,3.5-2,4
			c-0.5,0.6-0.5,0.4-1,1c-1.3,1.6-1.2,3.4-2,3c0,0,0.2,0.1-0.5-0.5c-0.3-0.3-0.1-1.8,0-2"/>
		<rect id="Keyboard" x="619" y="334" class="st20" width="35" height="2"/>
		<rect id="Frame_7_" x="619" y="311" class="st26" width="35" height="23"/>
		<rect id="Screen" x="621" y="313" class="st11" width="31" height="19"/>
		<rect id="Plug" x="657" y="356" class="st20" width="3" height="3"/>
		<rect id="Logo3" x="631" y="317" class="st3" width="5" height="5"/>
		<rect id="Logo4" x="637" y="317" class="st3" width="5" height="5"/>
		<rect id="Logo2" x="631" y="323" class="st3" width="5" height="5"/>
		<rect id="Logo1" x="637" y="323" class="st3" width="5" height="5"/>
	</g>
	<g id="Furniture">
		<rect id="Bottom_7_" x="403" y="326" class="st35" width="25" height="35"/>
		<rect id="Top_5_" x="403" y="321" class="st35" width="30" height="5"/>
		<rect id="Middle_3_" x="403" y="326" class="st47" width="25" height="5"/>
	</g>
	<g id="Desklight" class="clickable">
		<rect x="522" y="309" class="st48" width="13" height="2"/>
		<line class="st49" x1="528.5" y1="295.5" x2="528.5" y2="311"/>
		<line class="st50" x1="538.5" y1="286.5" x2="528.5" y2="295.5"/>
		<circle class="st18" cx="540.8" cy="286.8" r="3.8"/>
		<rect x="540.4" y="283" class="st18" width="7.6" height="7.6"/>
	</g>
</g>
<g id="Bedroom">
	<g id="Wardrobe">
		<polygon id="Frame_13_" class="st11" points="893,211 673,211 673,75 893,169 		"/>
		<rect id="Drawer6" x="678" y="131" class="st17" width="50" height="75"/>
		<rect id="Drawer5" x="738" y="161" class="st17" width="60" height="45"/>
		<rect id="Drawer4" x="808" y="186" class="st17" width="75" height="20"/>
		<polygon id="Drawer3" class="st17" points="883,167.3 808,136 808,181 883,181 		"/>
		<polygon id="Drawer2" class="st17" points="798,132 738,106 738,156 798,156 		"/>
		<polygon id="Drawer1" class="st17" points="728,102 678,80 678,126 728,126 		"/>
		<rect id="Box9" x="688" y="121" class="st12" width="30" height="5"/>
		<rect id="Box8" x="688" y="111" class="st11" width="30" height="10"/>
		<polygon id="Shadow6" class="st31" points="678,80 678,84.8 728,106.8 728,102 		"/>
		<rect id="Shadow5" x="678" y="131" class="st31" width="50" height="6"/>
		<rect id="Shadow4_2_" x="738" y="161" class="st31" width="60" height="6"/>
		<rect id="Shadow3_1_" x="808" y="186" class="st31" width="75" height="6"/>
		<polygon id="Shadow2_2_" class="st31" points="738,106 738,110.8 798,137 798,132 		"/>
		<polygon id="Shadow1_2_" class="st31" points="808,136 808,140.8 883,174 883,168 		"/>
		<rect id="Box7" x="688" y="201" class="st6" width="30" height="5"/>
		<rect id="Box6" x="688" y="196" class="st12" width="30" height="5"/>
		<rect id="Box5" x="688" y="191" class="st11" width="30" height="5"/>
		<polygon id="Hanger4" class="st10" points="695,153 695,151 700,151 700,149 704,149 704,151 709,151 709,153 		"/>
		<circle id="Hanger3" class="st10" cx="702" cy="146" r="4"/>
		<circle id="Hanger2" class="st17" cx="702" cy="146" r="3"/>
		<polygon id="Hanger1" class="st51" points="704,148 705,149 707,146 704,146 		"/>
		<path id="Shirt" class="st11" d="M693,183v-23l-3.3,3.3c-0.4,0.4-1,0.4-1.4,0.1l-3.6-2.8c-0.4-0.3-0.4-0.9-0.1-1.2l8.4-8.4h3
			c0,0,5,7,11,0h3l9.3,8.4c0.4,0.3,0.4,0.9,0,1.2l-2.7,2.7c-0.4,0.4-0.9,0.4-1.3,0L711,159v24c0,0.6-0.5,1-1,1h-16
			C693.5,184,693,183.5,693,183z"/>
		<rect id="Box4" x="748" y="146" class="st3" width="40" height="10"/>
		<rect id="Box3" x="748" y="141" class="st16" width="40" height="5"/>
		<rect id="Bar" x="738" y="171" class="st52" width="60" height="5"/>
		<rect id="Umbrella3" x="743" y="181" class="st40" width="10" height="20"/>
		<rect id="Umbrella2" x="763" y="181" class="st5" width="10" height="20"/>
		<rect id="Umbrella1" x="783" y="181" class="st2" width="10" height="20"/>
		<rect id="Handle3" x="746" y="171" class="st10" width="4" height="10"/>
		<rect id="Handle2_2_" x="766" y="171" class="st10" width="4" height="10"/>
		<rect id="Handle1_2_" x="786" y="171" class="st10" width="4" height="10"/>
		<rect id="Box2" x="823" y="176" class="st0" width="40" height="5"/>
		<rect id="Box1" x="823" y="166" class="st2" width="40" height="10"/>
		<path id="Shoes6" class="st53" d="M817,196h-3c-0.6,0-1.1,0.5-1.1,1.1v8.9h5v-9C818,196.4,817.6,196,817,196z"/>
		<path id="Shoes5" class="st53" d="M826.9,196h-2.8c-0.6,0-1.1,0.5-1.1,1.1v8.9h5v-8.9C828,196.5,827.5,196,826.9,196z"/>
		<path id="Shoes4" class="st54" d="M841.8,201h-2.5c-0.7,0-1.3,0.6-1.3,1.3v3.7h5v-3.8C843,201.6,842.4,201,841.8,201z"/>
		<path id="Shoes3" class="st54" d="M851.5,201h-2c-0.8,0-1.5,0.7-1.5,1.5v3.5h5v-3.5C853,201.7,852.3,201,851.5,201z"/>
		<path id="Shoes2" class="st55" d="M866.8,201h-2.5c-0.7,0-1.2,0.6-1.2,1.2v3.8h5v-3.8C868,201.6,867.4,201,866.8,201z"/>
		<path id="Shoes1" class="st55" d="M876.9,201h-2.7c-0.6,0-1.2,0.5-1.2,1.2v3.8h5v-3.9C878,201.5,877.5,201,876.9,201z"/>
	</g>
	<g id="Bed">
		<rect id="Bottom_10_" x="488" y="191" class="st35" width="135" height="20"/>
		<rect id="Middle_5_" x="488" y="186" class="st47" width="135" height="5"/>
		<path id="Mattress2" class="st12" d="M633,186H480.7c-1.5,0-2.7-1.2-2.7-2.7V181h155V186z"/>
		<path id="Mattress1" class="st11" d="M628.8,166H480.8c-1.6,0-2.8,1.3-2.8,2.8V181h155v-10.8C633,167.9,631.1,166,628.8,166z"/>
		<rect id="Top_7_" x="488" y="141" class="st35" width="135" height="25"/>
		<rect id="Pillow4" x="498" y="161" class="st12" width="50" height="5"/>
		<path id="Pillow3" class="st18" d="M548,161h-50v-2.7c0-1.3,1-2.3,2.3-2.3h45.2c1.4,0,2.5,1.1,2.5,2.5V161z"/>
		<rect id="Pillow2" x="563" y="161" class="st12" width="50" height="5"/>
		<path id="Pillow1" class="st18" d="M613,161h-50v-2.5c0-1.4,1.1-2.5,2.5-2.5h44.7c1.5,0,2.8,1.2,2.8,2.8V161z"/>
	</g>
	<g id="Phone" class="clickable">
		<rect id="Frame_12_" x="463" y="158" class="st10" width="12" height="21"/>
		<rect id="Screen_4_" x="463.5" y="158.7" class="st11" width="11" height="18.3"/>
		<ellipse id="Button_1_" class="st18" cx="468.8" cy="178" rx="0.8" ry="1"/>
		<rect id="Android6" x="467" y="168.8" class="st0" width="1" height="1.4"/>
		<rect id="Android5" x="469.5" y="168.8" class="st0" width="1" height="1.4"/>
		<rect id="Android4" x="467" y="164.1" class="st0" width="3.5" height="4.1"/>
		<rect id="Android3" x="471" y="164.1" class="st0" width="1" height="3.4"/>
		<rect id="Android2" x="465.5" y="164.1" class="st0" width="1" height="3.4"/>
		<path id="Android1" class="st0" d="M467,163.4h3.5v-0.9c0,0-1.5-3.7-3.5,0C467,163.4,467,163.4,467,163.4z"/>
		<path id="Cable_3_" class="st27" d="M469.5,178.5c-1,3-0.1,5.8,0.5,6.5c1.1,1.3,3,0.6,4,2c0.7,1,0.2,2.1,0,4c-0.3,2.6,0.5,3.2,1,7
			c0.9,6.6-0.7,8.4,1,10c1.3,1.2,3.4,1.1,6,1c1.2-0.1,2.6-0.9,5-1c0.4,0,0.8,0,1,0"/>
	</g>
	<g id="Alarm" class="clickable">
		<g id="Frame_11_">
			<polygon class="st11" points="533,126 528,126 493,126 493,141 533,141 			"/>
		</g>
		<rect id="Screen_3_" x="497" y="130" class="st10" width="22" height="8"/>
		<circle id="Button" class="st10" cx="526" cy="133" r="2"/>
		<line id="Number28" class="st56" x1="499" y1="137" x2="502" y2="137"/>
		<line id="Number27" class="st56" x1="502.5" y1="134.5" x2="502.5" y2="136.5"/>
		<line id="Number26" class="st56" x1="498.5" y1="134.5" x2="498.5" y2="136.5"/>
		<line id="Number25" class="st56" x1="499" y1="134.5" x2="502" y2="134.5"/>
		<line id="Number24" class="st56" x1="502.5" y1="131.5" x2="502.5" y2="133.5"/>
		<line id="Number23" class="st56" x1="498.5" y1="131.5" x2="498.5" y2="133.5"/>
		<line id="Number22" class="st56" x1="499" y1="131.5" x2="502" y2="131.5"/>
		<line id="Number21" class="st56" x1="504" y1="137" x2="507" y2="137"/>
		<line id="Number20" class="st56" x1="507.5" y1="134.5" x2="507.5" y2="136.5"/>
		<line id="Number19" class="st56" x1="503.5" y1="134.5" x2="503.5" y2="136.5"/>
		<line id="Number18" class="st56" x1="504" y1="134.5" x2="507" y2="134.5"/>
		<line id="Number17" class="st56" x1="507.5" y1="131.5" x2="507.5" y2="133.5"/>
		<line id="Number16" class="st56" x1="503.5" y1="131.5" x2="503.5" y2="133.5"/>
		<line id="Number15" class="st56" x1="504" y1="131.5" x2="507" y2="131.5"/>
		<line id="Number14" class="st56" x1="509" y1="137" x2="512" y2="137"/>
		<line id="Number13" class="st56" x1="512.5" y1="134.5" x2="512.5" y2="136.5"/>
		<line id="Number12" class="st56" x1="508.5" y1="134.5" x2="508.5" y2="136.5"/>
		<line id="Number11" class="st56" x1="509" y1="134.5" x2="512" y2="134.5"/>
		<line id="Number10" class="st56" x1="512.5" y1="131.5" x2="512.5" y2="133.5"/>
		<line id="Number9" class="st56" x1="508.5" y1="131.5" x2="508.5" y2="133.5"/>
		<line id="Number8" class="st56" x1="509" y1="131.5" x2="512" y2="131.5"/>
		<line id="Number7" class="st56" x1="514" y1="137" x2="517" y2="137"/>
		<line id="Number6" class="st56" x1="517.5" y1="134.5" x2="517.5" y2="136.5"/>
		<line id="Number5" class="st56" x1="513.5" y1="134.5" x2="513.5" y2="136.5"/>
		<line id="Number4" class="st56" x1="514" y1="134.5" x2="517" y2="134.5"/>
		<line id="Number3" class="st56" x1="517.5" y1="131.5" x2="517.5" y2="133.5"/>
		<line id="Number2" class="st56" x1="513.5" y1="131.5" x2="513.5" y2="133.5"/>
		<line id="Number1" class="st56" x1="514" y1="131.5" x2="517" y2="131.5"/>
		<polyline id="Antenna" class="st57" points="528,126 528,121 533,120 525,119 533,117 525,115 534,113 		"/>
	</g>
	<g id="Heater_1_">
		<path id="Body_3_" class="st11" d="M213,176h-10v35h4c3.3,0,6-2.7,6-6V176z"/>
		<path id="Top_6_" class="st31" d="M203,176h10v-1.2c0-3.2-2.6-5.8-5.8-5.8H203V176z"/>
		
			<rect id="Line_3_" x="203" y="176" transform="matrix(-1 -3.183244e-11 3.183244e-11 -1 408.0001 387.0001)" class="st26" width="2" height="35"/>
	</g>
	<g id="TV" class="clickable">
		<rect id="Foot" x="403" y="174" class="st6" width="21" height="2"/>
		<rect id="Middle_4_" x="410" y="172" class="st11" width="7" height="2"/>
		<rect id="Frame_10_" x="383" y="133" class="st26" width="61" height="39"/>
		<rect id="Screen_2_" x="385" y="136" class="st11" width="57" height="34"/>
		<path id="Logo_x5F_2_x5F_" class="st58" d="M390.9,154.3c1.8-2,7-7.1,15.5-9.2c8.9-2.1,16.2,0.4,18.6,1.4"/>
		<text id="Logo">		<textPath  xlink:href="#Logo_x5F_2_x5F_" startOffset="44.1625%">
<tspan  class="st40" style="font-family:'DejaVuSansMono'; font-size:5px;">NETFLEX</tspan>		</textPath>
</text>
		<rect id="Square14" x="387" y="155" class="st40" width="6" height="6"/>
		<rect id="Square13" x="395" y="155" class="st48" width="6" height="6"/>
		<rect id="Square12" x="403" y="155" class="st0" width="6" height="6"/>
		<rect id="Square11" x="411" y="155" class="st48" width="6" height="6"/>
		<rect id="Square10" x="419" y="155" class="st59" width="6" height="6"/>
		<rect id="Square9" x="427" y="155" class="st59" width="6" height="6"/>
		<rect id="Square8" x="435" y="155" class="st0" width="6" height="6"/>
		<rect id="Square7" x="387" y="162" class="st0" width="6" height="6"/>
		<rect id="Square6" x="395" y="162" class="st40" width="6" height="6"/>
		<rect id="Square5" x="403" y="162" class="st40" width="6" height="6"/>
		<rect id="Square4" x="411" y="162" class="st48" width="6" height="6"/>
		<rect id="Square3" x="427" y="162" class="st48" width="6" height="6"/>
		<rect id="Square2" x="419" y="162" class="st0" width="6" height="6"/>
		<rect id="Square1" x="435" y="162" class="st59" width="6" height="6"/>
	</g>
	<g id="Lamps_2_" class="clickable">
		<circle id="Light2_2_" class="st11" cx="467" cy="77" r="5"/>
		<path id="Bracket2_2_" class="st25" d="M452,77h15h15C482,77,467,62,452,77z"/>
		<line id="Cable2_2_" class="st29" x1="466" y1="72" x2="466" y2="57"/>
		<circle id="Light1_2_" class="st11" cx="632" cy="77" r="5"/>
		<path id="Bracket1_2_" class="st25" d="M617,77h15h15C647,77,632,62,617,77z"/>
		<line id="Cable1_2_" class="st29" x1="631" y1="72" x2="631" y2="57"/>
	</g>
	<g id="Window_3_">
		<rect id="Frame_9_" x="522" y="35" class="st11" width="52" height="62"/>
		<rect id="Glass_2_" x="526" y="39" class="st3" width="44" height="54"/>
		<path id="Bottom_9_" class="st12" d="M584,102h-73v-2c0-1.7,1.4-3,3-3h67c1.7,0,3,1.3,3,3V102z"/>
	</g>
	<g id="Consoles" class="clickable">
		<rect id="Leg2_6_" x="373" y="206" class="st53" width="5" height="5"/>
		<rect id="Leg1_4_" x="442" y="206" class="st53" width="5" height="5"/>
		<path id="Bottom_12_" class="st59" d="M455,204h-87l0,0c0,1.1,0.9,2,2,2h83C454.1,206,455,205.1,455,204L455,204z"/>
		<rect id="Frame_15_" x="368" y="181" class="st53" width="87" height="23"/>
		<path id="Top_8_" class="st59" d="M452.5,176h-81.6c-1.6,0-2.8,1.3-2.8,2.8v2.2h87v-2.5C455,177.1,453.9,176,452.5,176z"/>
		<g id="Drawers">
			<rect id="Drawer6_1_" x="370" y="182" class="st11" width="26" height="9"/>
			<rect id="Drawer5_1_" x="370" y="193" class="st11" width="26" height="9"/>
			<rect id="Drawer4_1_" x="398" y="182" class="st11" width="26" height="9"/>
			<rect id="Drawer3_1_" x="398" y="193" class="st11" width="26" height="9"/>
			<rect id="Drawer2_1_" x="426" y="182" class="st11" width="26" height="9"/>
			<rect id="Drawer1_1_" x="426" y="193" class="st11" width="26" height="9"/>
		</g>
		<g id="Shadows">
			<rect id="Shadow6_1_" x="370" y="182" class="st12" width="26" height="3"/>
			<rect id="Shadow5_1_" x="398" y="182" class="st12" width="26" height="3"/>
			<rect id="Shadow4_3_" x="426" y="182" class="st12" width="26" height="3"/>
			<rect id="Shadow3_2_" x="398" y="193" class="st12" width="26" height="3"/>
			<rect id="Shadow2_3_" x="426" y="193" class="st12" width="26" height="3"/>
			<rect id="Shadow1_3_" x="370" y="193" class="st12" width="26" height="3"/>
		</g>
		<g id="Console6">
			<rect id="Frame_14_" x="430" y="197" class="st10" width="18" height="5"/>
			<circle id="Button_2_" class="st11" cx="445.5" cy="199.5" r="1.5"/>
			<path id="Line_4_" class="st60" d="M443,199c0,0-2.7,0-6,0s-6,0-6,0s2.7,0,6,0S443,199,443,199z"/>
		</g>
		<g id="Console5">
			<rect id="Frame_17_" x="402" y="197" class="st10" width="18" height="5"/>
			<circle id="Button_3_" class="st11" cx="417.5" cy="199.5" r="1.5"/>
			<path id="Line_5_" class="st60" d="M415,199c0,0-2.7,0-6,0s-6,0-6,0s2.7,0,6,0S415,199,415,199z"/>
		</g>
		<g id="Console4">
			<rect id="Frame_18_" x="373" y="197" class="st10" width="18" height="5"/>
			<circle id="Button_4_" class="st11" cx="388.5" cy="199.5" r="1.5"/>
			<path id="Line_6_" class="st60" d="M386,199c0,0-2.7,0-6,0s-6,0-6,0s2.7,0,6,0S386,199,386,199z"/>
		</g>
		<g id="Console3">
			<rect id="Frame_19_" x="374" y="186" class="st10" width="18" height="5"/>
			<circle id="Button_5_" class="st11" cx="389.5" cy="188.5" r="1.5"/>
			<path id="Line_7_" class="st60" d="M387,188c0,0-2.7,0-6,0s-6,0-6,0s2.7,0,6,0S387,188,387,188z"/>
		</g>
		<g id="Console2">
			<rect id="Frame_20_" x="402" y="186" class="st10" width="18" height="5"/>
			<circle id="Button_6_" class="st11" cx="417.5" cy="188.5" r="1.5"/>
			<path id="Line_8_" class="st60" d="M415,188c0,0-2.7,0-6,0s-6,0-6,0s2.7,0,6,0S415,188,415,188z"/>
		</g>
		<g id="Console1_5_">
			<rect id="Frame_21_" x="430" y="186" class="st10" width="18" height="5"/>
			<circle id="Button_7_" class="st11" cx="445.5" cy="188.5" r="1.5"/>
			<path id="Line_9_" class="st60" d="M443,188c0,0-2.7,0-6,0s-6,0-6,0s2.7,0,6,0S443,188,443,188z"/>
		</g>
	</g>
	<g id="Tablet" class="clickable">
		<path id="Cable_5_" class="st27" d="M339.5,191.5c-1,1.6-0.1,3.1,0.5,3.5c1.1,0.7,3,0.3,4,1.1c0.7,0.5,0.2,1.1,0,2.2
			c-0.3,1.4,0.5,1.7,1,3.8c0.9,3.5-0.7,4.6,1,5.4c1.3,0.7,3.4,0.6,6,0.5c1.2,0,2.6-0.5,5-0.5c0.4,0,0.8,0,1,0"/>
		<rect id="Frame_22_" x="331" y="169" class="st10" width="18" height="23"/>
		<rect id="Screen_5_" x="332" y="170" class="st11" width="16" height="20"/>
		<ellipse id="Button_8_" class="st18" cx="339.8" cy="191" rx="0.8" ry="1"/>
		<circle class="st6" cx="340" cy="181" r="3.5"/>
		<ellipse transform="matrix(0.458 -0.889 0.889 0.458 28.1063 398.0955)" class="st6" cx="340.5" cy="176" rx="1" ry="0.5"/>
		<rect x="358" y="206" class="st6" width="3" height="3"/>
	</g>
	<g id="Table_2_">
		<rect x="319" y="196" class="st61" width="41" height="3"/>
		<rect x="322" y="196" class="st11" width="3" height="15"/>
		<rect x="353" y="196" class="st11" width="3" height="15"/>
		<rect x="319" y="193" class="st11" width="41" height="3"/>
	</g>
</g>
<g id="Garage">
	<g id="Watertank" class="clickable">
		<path class="st52" d="M882.4,416h-12.8c-3.1,0-5.6-2.5-5.6-5.6v-31.8c0-3.1,2.5-5.6,5.6-5.6h12.8c3.1,0,5.6,2.5,5.6,5.6v31.8
			C888,413.5,885.5,416,882.4,416z"/>
		<rect x="886" y="405" class="st52" width="7" height="3"/>
		<rect x="886" y="381" class="st52" width="7" height="3"/>
		<line class="st62" x1="876" y1="416" x2="876" y2="421"/>
		<polygon class="st6" points="872,419 873,418 877,419 873,420 		"/>
		<rect x="876.5" y="418.5" class="st62" width="16" height="0"/>
		<path class="st17" d="M883,409c-4.6,0-9.1,0-13.7,0c-0.1,0-0.2,0-0.3,0c0-1.3,0-2.7,0-4h14V409z"/>
		<path class="st17" d="M870,408"/>
		<path class="st17" d="M869,410"/>
		<path class="st45" d="M869,409c0.2-0.5,0.5-1,1-1.3c0.7-0.4,1.1,0.3,2,0c1.1-0.3,1.4-1.5,2-1.3c0,0,0.1,0.1,1,1.3
			c0.7,0.3,1.5,0.5,2,0c0.7-0.7,0.4-2.3,1-2.6c0.6-0.3,1.5,0.6,2,1.3c0.4,0.6,0.5,1.1,1,1.3c0.4,0.2,0.6-0.1,1,0
			c0.4,0.1,0.7,0.6,1,1.3"/>
		<path class="st41" d="M869,409c0.2-0.2,0.5-0.5,1-0.7c0.7-0.2,1.1,0.1,2,0c1.1-0.2,1.4-0.8,2-0.7c0,0,0.1,0,1,0.7
			c0.7,0.2,1.5,0.3,2,0c0.7-0.4,0.4-1.1,1-1.3c0.6-0.2,1.5,0.3,2,0.7c0.4,0.3,0.5,0.6,1,0.7c0.4,0.1,0.6-0.1,1,0
			c0.4,0.1,0.7,0.3,1,0.7"/>
	</g>
	<g id="Decoration">
		<rect id="Frame2_1_" x="604" y="393" class="st11" width="19" height="28"/>
		<rect id="Pic2" x="607" y="397" class="st31" width="13" height="20"/>
		<rect id="Frame1_1_" x="636" y="393" class="st11" width="19" height="28"/>
		<rect id="Pic1" x="639" y="397" class="st31" width="13" height="20"/>
		<g id="Chimney">
			<rect id="Bottom2_2_" x="688" y="506" class="st26" width="50" height="5"/>
			<rect id="Bottom1_2_" x="693" y="501" class="st31" width="40" height="5"/>
			<rect id="Middle4" x="693" y="476" class="st11" width="40" height="25"/>
			<rect id="Middle3" x="693" y="471" class="st17" width="40" height="5"/>
			<rect id="Middle2_1_" x="688" y="466" class="st12" width="50" height="5"/>
			<rect id="Middle_7_" x="688" y="461" class="st11" width="50" height="5"/>
			<rect id="Top_11_" x="701" y="371" class="st11" width="26" height="90"/>
			<path id="Fireplace" class="st6" d="M723,501v-10c0,0-10-15-20,0c0,10,0,10,0,10H723z"/>
			<path id="Fire2" class="st45" d="M709,501c0,0-3-2-3-5s6-8,6-8s5,4,5,8s-1.7,5-1.7,5H709z"/>
			<path id="Fire1" class="st63" d="M709.9,501c0,0-1.9-1.4-1.9-3.5c0-2.1,3.8-5.5,3.8-5.5s3.2,2.8,3.2,5.5s-1.1,3.5-1.1,3.5H709.9z
				"/>
		</g>
		<g id="Clock_1_">
			<circle id="Frame_16_" class="st10" cx="714" cy="413" r="11"/>
			<circle id="Glass_3_" class="st11" cx="714" cy="413" r="8"/>
			<line id="Hand2_1_" class="st27" x1="714" y1="407" x2="714" y2="413"/>
			<line id="Hand1_1_" class="st27" x1="720" y1="410" x2="714" y2="413"/>
		</g>
	</g>
	<g id="Bass" class="clickable">
		<path id="Cable_4_" class="st46" d="M601,481c-0.2-1.3-0.8-5.9,2-10c0.6-0.9,2.2-3,5-4c1-0.3,3.5-1.2,5,0c1.5,1.1,0.7,3,2,6
			c0.5,1.2,1.3,2.9,3,4c1.3,0.8,3.4,1.1,7.5,1.5c2,0.2,3,0.2,4,1c1.2,0.8,1.7,2.1,2,3"/>
		<path id="Body_x5F_bass" class="st5" d="M600.8,511h-14.3c-1.9,0-3.5-1.6-3.5-3.5v-17.6c0-4.9,4-8.9,8.9-8.9h12.6
			c1.9,0,3.5,1.6,3.5,3.5v19.3C608,507.8,604.8,511,600.8,511z"/>
		<rect id="Stick" x="592" y="431" class="st5" width="6" height="50"/>
		<path id="Head_1_" class="st45" d="M598.6,436h-5.3c-0.7,0-1.3-0.6-1.3-1.3v-10.3c0-0.7,0.6-1.3,1.3-1.3l0,0
			c4.2,0,7.7,3.4,7.7,7.7v3C601,434.9,599.9,436,598.6,436z"/>
		<path id="Pickguard" class="st31" d="M603,508h-13v-21h1.5c6.3,0,11.5,5.1,11.5,11.5V508z"/>
		<line id="Cord4" class="st64" x1="594" y1="431" x2="594" y2="506"/>
		<line id="Cord3" class="st64" x1="595" y1="431" x2="595" y2="506"/>
		<line id="Cord2" class="st64" x1="596" y1="431" x2="596" y2="506"/>
		<line id="Cord1" class="st64" x1="597" y1="431" x2="597" y2="506"/>
		<rect id="Body_5_" x="618" y="478" class="st10" width="35" height="33"/>
		<rect id="Middle_6_" x="623" y="486" class="st11" width="25" height="21"/>
		<rect id="Top_10_" x="623" y="482" class="st17" width="25" height="4"/>
		<rect id="Logo_1_" x="631" y="490" class="st10" width="9" height="3"/>
	</g>
	<g id="Washer" class="clickable">
		<rect id="Body_4_" x="833" y="451" class="st11" width="55" height="55"/>
		<rect id="Bottom_13_" x="833" y="506" class="st6" width="55" height="5"/>
		<rect id="Top_9_" x="833" y="446" class="st26" width="55" height="5"/>
		<path id="Laundry2" class="st0" d="M881,434h-0.6c-1.3,0-2.3,1-2.3,2.3v9.6c0,0,0,0.1,0.1,0.1h4.8c0,0,0.1,0,0.1-0.1V436
			C883,434.9,882.1,434,881,434z"/>
		<circle id="Door" class="st26" cx="860.5" cy="478.5" r="17.5"/>
		<path id="Laundry1" class="st40" d="M871,440h-0.6c-1.3,0-2.3,1-2.3,2.3v3.6c0,0,0,0.1,0.1,0.1h4.8c0,0,0.1,0,0.1-0.1V442
			C873,440.9,872.1,440,871,440z"/>
		<rect id="Handle_2_" x="873" y="471" class="st6" width="5" height="15"/>
	</g>
	<g id="Lamps_3_" class="clickable">
		<circle id="Light2_3_" class="st11" cx="668" cy="391" r="5"/>
		<path id="Bracket2_3_" class="st25" d="M653,391h15h15C683,391,668,376,653,391z"/>
		<line id="Cable2_3_" class="st29" x1="667" y1="386" x2="667" y2="371"/>
		<circle id="Light1_3_" class="st11" cx="833" cy="391" r="5"/>
		<path id="Bracket1_3_" class="st25" d="M818,391h15h15C848,391,833,376,818,391z"/>
		<line id="Cable1_3_" class="st29" x1="832" y1="386" x2="832" y2="371"/>
	</g>
	<g id="Armchair">
		<path id="Bottom_11_" class="st38" d="M658,501h50v2c0,4.4-3.6,8-8,8h-34.4c-4.2,0-7.6-3.4-7.6-7.6V501z"/>
		<path id="Head" class="st0" d="M663.8,485H708v16h-50v-10.3C658,487.6,660.6,485,663.8,485z"/>
		<path id="Back_1_" class="st0" d="M700.3,469h3.6c2.3,0,4.1,1.8,4.1,4.1V485h-12v-11.7C696,470.9,697.9,469,700.3,469z"/>
		<circle id="Line2" class="st65" cx="685.5" cy="444.5" r="17"/>
		
			<rect id="Line1" x="701" y="444.5" transform="matrix(-1 -4.486867e-11 4.486867e-11 -1 1405 914)" class="st25" width="3" height="25"/>
		<polygon id="Hider2" class="st3" points="666,446 669.9,446 701,445 701,461 688,461 688,466 671.4,466 		"/>
		<path id="Bracket_1_" class="st11" d="M677,450h-18C659,450,668,436,677,450z"/>
		<rect id="Hider1" x="688" y="461" class="st11" width="10" height="5"/>
	</g>
	<g id="Dryer" class="clickable">
		<rect id="Bottom_14_" x="774" y="506" class="st6" width="55" height="5"/>
		<rect x="774" y="454" class="st18" width="55" height="52"/>
		<rect x="774" y="446" class="st26" width="55" height="8"/>
		<rect x="795" y="452" class="st12" width="13" height="6"/>
	</g>
</g>
</svg>
